<?xml version="1.0" encoding="utf-8"?>
<svg version="1.1" id="svg2" width="960" height="720" viewBox="0 0 960 720" xmlns="http://www.w3.org/2000/svg">
  <defs id="defs6"/>
  <g id="g8" transform="matrix(1.3333333,0,0,-1.3333333,0,720)">
    <g id="g12" transform="matrix(2.106747, 0, 0, 2.106747, 217.081024, 185.988083)">
      <path d="m 0,0 -0.891,12.816 -0.845,10.562 -1.092,14.289 13.188,13.171 1.452,5.346 1.454,4.473 0.705,1.693 2.136,-1.07 3.872,-1.741 3.51,-2.114 5.563,-3.106 3.994,-2.361 0.452,-0.249 1.363,-0.746 4.476,-3.975 9.314,-9.817 L 52.4,19.667 27.194,10.354 25.786,9.834 6.186,2.256 Z" style="fill:#878787;fill-opacity:1;fill-rule:evenodd;stroke:none" id="path14"/>
    </g>
    <g id="g16" transform="matrix(2.106747, 0, 0, 2.106747, 217.081024, 185.988083)">
      <path d="m 0,0 -0.891,12.816 -0.845,10.562 -1.092,14.289 13.188,13.171 1.452,5.346 1.454,4.473 0.705,1.693 2.136,-1.07 3.872,-1.741 3.51,-2.114 5.563,-3.106 3.994,-2.361 0.452,-0.249 1.363,-0.746 4.476,-3.975 9.314,-9.817 L 52.4,19.667 27.194,10.354 25.786,9.834 6.186,2.256 Z" style="fill:none;stroke:#f9f9f9;stroke-width:0.25;stroke-linecap:round;stroke-linejoin:round;stroke-miterlimit:4;stroke-dasharray:none;stroke-opacity:1" id="path18"/>
    </g>
    <g id="g20" transform="matrix(2.106747, 0, 0, 2.106747, 475.85202, 64.49826)">
      <path d="M 0,0 V -0.244 H -0.235 V -0.49 H -0.714 V -0.734 H -0.953 V -0.98 h -0.239 v -0.246 l -0.475,0.002 v -0.248 h -0.239 v -0.244 l -0.24,0.002 v -0.245 l -0.239,-0.034 -8.296,10.144 -5.887,7.722 -11.442,14.434 -5.776,7.273 -1.065,0.923 0.41,0.199 4.207,9.909 8.001,7.882 21.251,21.155 13.151,12.65 v -0.143 h 0.239 v -0.491 h 0.239 v -0.245 h 0.24 v -0.245 l 0.235,0.002 v -0.247 h 0.239 v -0.245 l 0.24,0.002 v -0.247 h 0.239 v -0.49 h 0.478 v -0.245 h 0.236 v -0.49 h 0.239 v -0.246 h 0.239 V 86.48 h 0.239 v -0.246 h 0.24 V 85.99 h 0.236 v -0.246 h 0.479 v -0.245 h 0.239 v -0.245 l 0.238,10e-4 v -0.246 h 0.239 v -0.49 h 0.237 v -0.735 h 0.717 v 0.245 h 0.24 v 0.245 h 0.235 v 0.245 h 0.239 v 0.246 h 0.479 V 84.029 H 18.85 v -0.245 l -0.24,0.002 v -0.247 h -0.239 v -0.245 l -0.235,0.001 v -0.981 h 0.235 v -0.245 h 0.479 v -0.245 h 0.239 v -0.736 h 0.239 v -0.49 h 0.239 v -1.226 h 0.236 v -0.49 h 0.239 v -0.243 h 0.953 v -0.245 h 0.239 v -0.491 h 0.24 v 0.491 h 0.239 v 0.245 h 0.239 v -0.245 h 0.476 v -0.491 h 0.239 v -0.491 h 0.239 v -0.49 h 0.478 v -0.243 h 0.236 v -0.247 l 3.103,0.002 v -0.491 h -0.24 v -0.491 h -0.239 v -0.244 h 0.718 v -0.246 h 0.953 v -0.243 h 0.479 v 0.243 h 0.714 v 0.246 h 0.954 v 0.244 h 1.196 v 0.491 h 0.474 v 0.245 h 0.479 v 0.246 h 1.907 v -0.246 h 0.238 v -2.206 h 0.24 v -0.734 h 0.715 v 0.244 h 0.239 v 0.246 h 0.239 v 0.244 h 1.432 v -0.98 h 0.239 v -0.245 h 0.239 v -0.245 h 0.236 v -0.49 h 0.239 v -0.49 h 0.239 v -0.735 l 0.239,0.002 v -0.736 h 0.24 v -0.492 h 0.239 v -1.468 h 0.474 v -0.246 h 0.24 v -0.246 h 0.239 v -0.244 h 0.715 v 0.244 h 0.238 v 0.246 h 0.718 v -0.246 h 2.625 v -0.244 h -0.239 v -0.489 h -0.957 v -0.244 h -0.237 v -0.248 l -0.239,0.002 V 65.897 H 42.47 v -0.49 h -0.24 v -0.489 h -0.239 v -1.47 h 0.239 v -0.246 h 0.24 v -0.246 h 0.714 v -0.244 h 0.478 v -0.246 h 0.239 v -0.979 l -0.239,10e-4 v -1.225 h -0.239 v -0.491 h -0.239 v -0.735 l -0.237,10e-4 v -0.98 H 42.708 V 57.076 H 42.47 v -1.47 h -0.24 v -0.49 h -0.239 v -1.223 h -0.236 v -0.247 h -0.239 v -0.735 h -0.24 V 52.666 H 41.037 V 52.423 H 40.799 V 52.178 H 40.56 v -0.245 h -0.237 v -0.491 h -0.239 v -0.489 h -0.239 v -0.247 h 0.239 v -0.49 h -0.239 v -1.469 h -0.714 v -0.244 h -0.239 v -0.247 h -0.24 v -0.487 h 0.24 v -0.492 h 0.239 v -0.245 l -0.239,0.002 v -0.49 h -0.24 v -0.491 h -0.239 v -0.244 h -0.239 v -0.492 h -0.239 v -0.246 l -0.236,0.003 v -0.49 H 37.46 v -0.246 h -0.239 v -0.245 l -0.24,0.002 v -0.492 h -0.239 v -0.246 h -0.475 v -1.224 h -0.239 v -0.245 h -0.239 v -1.226 l -0.239,10e-4 v -0.244 h -0.239 v -0.247 h -0.237 v -1.225 h -0.239 v -0.245 h -0.239 v -0.245 h -0.24 v -0.245 h -0.238 v -0.243 h -0.236 v -0.246 h -0.239 v -0.244 h -0.24 V 36.498 H 33.164 V 36.252 H 32.925 V 36.009 H 32.45 v -0.245 h -0.239 v -0.245 h -0.239 v -0.737 h -0.24 V 34.537 L 31.493,34.54 V 34.294 H 31.258 V 34.05 h -0.239 v -0.491 h -0.24 V 33.313 H 30.54 v -0.246 l -0.239,0.003 v -0.248 h -0.239 v -0.245 l -0.476,0.003 v -0.246 h -0.478 v -0.247 l -0.475,0.002 v -0.246 h -0.239 v -0.49 h -0.24 v -0.491 h -0.239 v -0.244 l -0.238,0.001 v -0.244 h -0.476 v -0.247 l -0.239,0.001 v -0.244 h -0.239 v -0.981 h -0.24 V 28.413 H 26.009 V 28.168 L 25.77,28.17 v -0.245 h -0.24 v -0.49 h -0.239 v -0.491 h -0.239 v -0.49 H 24.816 V 25.72 h -0.239 v -0.736 h -0.239 v -0.245 l -0.239,10e-4 v -0.246 h -0.24 V 24.25 H 23.62 V 24.003 H 23.384 V 23.76 h -0.239 v -1.469 h -0.239 v -0.49 H 22.667 V 21.555 H 22.191 V 21.31 H 21.952 V 21.064 H 21.713 V 20.329 H 21.474 V 19.84 h -0.24 V 19.596 H 20.995 V 19.35 H 20.76 v -0.245 h -0.957 v 0.245 h -0.236 v 0.246 H 19.328 V 19.84 H 19.089 V 19.596 H 18.85 V 19.35 h -0.479 v -0.245 h -0.475 v -0.246 h -0.239 v -0.49 h -0.239 v -0.733 h -0.239 v -0.49 h -0.237 v -0.979 h -0.239 v -1.47 H 16.465 V 13.96 h -0.239 v -0.243 h -0.24 v -0.244 h -0.239 v -0.246 l -0.236,0.002 v -0.248 h -0.24 v -1.713 h -0.239 v -0.49 H 14.793 V 10.531 H 14.318 V 10.286 L 13.84,10.288 V 10.041 H 13.601 V 9.798 h -0.24 V 9.553 H 12.887 V 9.307 H 12.408 V 9.063 H 12.169 V 8.816 L 11.93,8.819 V 8.083 H 11.694 V 7.838 H 11.216 V 7.593 H 10.977 V 7.348 h -0.24 V 7.103 H 10.498 V 6.857 H 10.262 V 6.612 h -0.24 V 6.367 L 9.783,6.368 V 6.124 H 9.545 V 5.877 L 9.069,5.878 V 5.634 H 8.591 V 5.388 H 8.112 V 5.144 H 7.874 V 4.897 H 7.638 V 4.653 H 7.398 V 4.407 H 7.159 V 4.164 H 6.92 V 3.674 H 6.681 V 3.429 H 5.249 V 3.184 H 4.774 V 2.938 H 4.296 V 2.693 H 3.82 V 2.448 H 3.581 V 2.203 H 3.104 V 1.958 H 2.625 V 1.715 H 2.149 V 1.47 H 1.91 V 1.225 H 1.671 V 0.979 H 1.432 V 0.734 H 0.957 V 0.489 H 0.479 V 0.244 H 0.239 L 0.239,0 Z" style="fill:#878787;fill-opacity:1;fill-rule:evenodd;stroke:none" id="path22"/>
    </g>
    <g id="g24" transform="matrix(2.106747, 0, 0, 2.106747, 475.85202, 64.49826)">
      <path d="M 0,0 V -0.244 H -0.235 V -0.49 H -0.714 V -0.734 H -0.953 V -0.98 h -0.239 v -0.246 l -0.475,0.002 v -0.248 h -0.239 v -0.244 l -0.24,0.002 v -0.245 l -0.239,-0.034 -8.296,10.144 -5.887,7.722 -11.442,14.434 -5.776,7.273 -1.065,0.923 0.41,0.199 4.207,9.909 8.001,7.882 21.251,21.155 13.151,12.65 v -0.143 h 0.239 v -0.491 h 0.239 v -0.245 h 0.24 v -0.245 l 0.235,0.002 v -0.247 h 0.239 v -0.245 l 0.24,0.002 v -0.247 h 0.239 v -0.49 h 0.478 v -0.245 h 0.236 v -0.49 h 0.239 v -0.246 h 0.239 V 86.48 h 0.239 v -0.246 h 0.24 V 85.99 h 0.236 v -0.246 h 0.479 v -0.245 h 0.239 v -0.245 l 0.238,10e-4 v -0.246 h 0.239 v -0.49 h 0.237 v -0.735 h 0.717 v 0.245 h 0.24 v 0.245 h 0.235 v 0.245 h 0.239 v 0.246 h 0.479 V 84.029 H 18.85 v -0.245 l -0.24,0.002 v -0.247 h -0.239 v -0.245 l -0.235,0.001 v -0.981 h 0.235 v -0.245 h 0.479 v -0.245 h 0.239 v -0.736 h 0.239 v -0.49 h 0.239 v -1.226 h 0.236 v -0.49 h 0.239 v -0.243 h 0.953 v -0.245 h 0.239 v -0.491 h 0.24 v 0.491 h 0.239 v 0.245 h 0.239 v -0.245 h 0.476 v -0.491 h 0.239 v -0.491 h 0.239 v -0.49 h 0.478 v -0.243 h 0.236 v -0.247 l 3.103,0.002 v -0.491 h -0.24 v -0.491 h -0.239 v -0.244 h 0.718 v -0.246 h 0.953 v -0.243 h 0.479 v 0.243 h 0.714 v 0.246 h 0.954 v 0.244 h 1.196 v 0.491 h 0.474 v 0.245 h 0.479 v 0.246 h 1.907 v -0.246 h 0.238 v -2.206 h 0.24 v -0.734 h 0.715 v 0.244 h 0.239 v 0.246 h 0.239 v 0.244 h 1.432 v -0.98 h 0.239 v -0.245 h 0.239 v -0.245 h 0.236 v -0.49 h 0.239 v -0.49 h 0.239 v -0.735 l 0.239,0.002 v -0.736 h 0.24 v -0.492 h 0.239 v -1.468 h 0.474 v -0.246 h 0.24 v -0.246 h 0.239 v -0.244 h 0.715 v 0.244 h 0.238 v 0.246 h 0.718 v -0.246 h 2.625 v -0.244 h -0.239 v -0.489 h -0.957 v -0.244 h -0.237 v -0.248 l -0.239,0.002 V 65.897 H 42.47 v -0.49 h -0.24 v -0.489 h -0.239 v -1.47 h 0.239 v -0.246 h 0.24 v -0.246 h 0.714 v -0.244 h 0.478 v -0.246 h 0.239 v -0.979 l -0.239,10e-4 v -1.225 h -0.239 v -0.491 h -0.239 v -0.735 l -0.237,10e-4 v -0.98 H 42.708 V 57.076 H 42.47 v -1.47 h -0.24 v -0.49 h -0.239 v -1.223 h -0.236 v -0.247 h -0.239 v -0.735 h -0.24 V 52.666 H 41.037 V 52.423 H 40.799 V 52.178 H 40.56 v -0.245 h -0.237 v -0.491 h -0.239 v -0.489 h -0.239 v -0.247 h 0.239 v -0.49 h -0.239 v -1.469 h -0.714 v -0.244 h -0.239 v -0.247 h -0.24 v -0.487 h 0.24 v -0.492 h 0.239 v -0.245 l -0.239,0.002 v -0.49 h -0.24 v -0.491 h -0.239 v -0.244 h -0.239 v -0.492 h -0.239 v -0.246 l -0.236,0.003 v -0.49 H 37.46 v -0.246 h -0.239 v -0.245 l -0.24,0.002 v -0.492 h -0.239 v -0.246 h -0.475 v -1.224 h -0.239 v -0.245 h -0.239 v -1.226 l -0.239,10e-4 v -0.244 h -0.239 v -0.247 h -0.237 v -1.225 h -0.239 v -0.245 h -0.239 v -0.245 h -0.24 v -0.245 h -0.238 v -0.243 h -0.236 v -0.246 h -0.239 v -0.244 h -0.24 V 36.498 H 33.164 V 36.252 H 32.925 V 36.009 H 32.45 v -0.245 h -0.239 v -0.245 h -0.239 v -0.737 h -0.24 V 34.537 L 31.493,34.54 V 34.294 H 31.258 V 34.05 h -0.239 v -0.491 h -0.24 V 33.313 H 30.54 v -0.246 l -0.239,0.003 v -0.248 h -0.239 v -0.245 l -0.476,0.003 v -0.246 h -0.478 v -0.247 l -0.475,0.002 v -0.246 h -0.239 v -0.49 h -0.24 v -0.491 h -0.239 v -0.244 l -0.238,0.001 v -0.244 h -0.476 v -0.247 l -0.239,0.001 v -0.244 h -0.239 v -0.981 h -0.24 V 28.413 H 26.009 V 28.168 L 25.77,28.17 v -0.245 h -0.24 v -0.49 h -0.239 v -0.491 h -0.239 v -0.49 H 24.816 V 25.72 h -0.239 v -0.736 h -0.239 v -0.245 l -0.239,10e-4 v -0.246 h -0.24 V 24.25 H 23.62 V 24.003 H 23.384 V 23.76 h -0.239 v -1.469 h -0.239 v -0.49 H 22.667 V 21.555 H 22.191 V 21.31 H 21.952 V 21.064 H 21.713 V 20.329 H 21.474 V 19.84 h -0.24 V 19.596 H 20.995 V 19.35 H 20.76 v -0.245 h -0.957 v 0.245 h -0.236 v 0.246 H 19.328 V 19.84 H 19.089 V 19.596 H 18.85 V 19.35 h -0.479 v -0.245 h -0.475 v -0.246 h -0.239 v -0.49 h -0.239 v -0.733 h -0.239 v -0.49 h -0.237 v -0.979 h -0.239 v -1.47 H 16.465 V 13.96 h -0.239 v -0.243 h -0.24 v -0.244 h -0.239 v -0.246 l -0.236,0.002 v -0.248 h -0.24 v -1.713 h -0.239 v -0.49 H 14.793 V 10.531 H 14.318 V 10.286 L 13.84,10.288 V 10.041 H 13.601 V 9.798 h -0.24 V 9.553 H 12.887 V 9.307 H 12.408 V 9.063 H 12.169 V 8.816 L 11.93,8.819 V 8.083 H 11.694 V 7.838 H 11.216 V 7.593 H 10.977 V 7.348 h -0.24 V 7.103 H 10.498 V 6.857 H 10.262 V 6.612 h -0.24 V 6.367 L 9.783,6.368 V 6.124 H 9.545 V 5.877 L 9.069,5.878 V 5.634 H 8.591 V 5.388 H 8.112 V 5.144 H 7.874 V 4.897 H 7.638 V 4.653 H 7.398 V 4.407 H 7.159 V 4.164 H 6.92 V 3.674 H 6.681 V 3.429 H 5.249 V 3.184 H 4.774 V 2.938 H 4.296 V 2.693 H 3.82 V 2.448 H 3.581 V 2.203 H 3.104 V 1.958 H 2.625 V 1.715 H 2.149 V 1.47 H 1.91 V 1.225 H 1.671 V 0.979 H 1.432 V 0.734 H 0.957 V 0.489 H 0.479 V 0.244 H 0.239 L 0.239,0 Z" style="fill:none;stroke:#f9f9f9;stroke-width:0.25;stroke-linecap:round;stroke-linejoin:round;stroke-miterlimit:4;stroke-dasharray:none;stroke-opacity:1" id="path26"/>
    </g>
    <g id="g28" transform="matrix(2.106747, 0, 0, 2.106747, 165.194199, 334.97052)">
      <path d="m 0,0 h -0.229 -0.233 v 0.492 h -0.236 v 0.979 h 0.236 v 0.49 h 0.239 v 1.471 h 0.24 v 0.49 h -0.24 v 0.491 h -0.239 v 0.488 h -0.236 v 0.245 h 0.475 v 1.472 h 0.24 v 0.49 L 0.255,7.107 V 8.088 H 0.017 v 0.491 h -0.24 v 0.49 H -0.462 V 9.56 L -0.698,9.558 v 0.246 h -0.239 v 0.245 h 0.239 v 0.245 h -0.478 v 0.491 h -0.24 v 0.489 h -0.239 v 1.959 h -0.236 v 1.228 h 0.236 v 1.472 h 0.239 v 0.98 h 0.24 v 0.243 h -0.24 v 0.738 l -0.239,-0.002 v 0.245 h -0.236 v 0.246 h -0.238 v 0.244 h 0.238 v 0.489 h 0.236 v 0.491 h 0.239 v 1.227 h 0.24 v 1.224 h -0.24 v 0.246 h -0.239 v 0.737 l -0.236,-0.003 v 0.736 h -0.238 v 1.47 h 0.238 v 0.246 h 0.236 v 0.492 l 0.239,-0.002 v 0.247 h -0.239 v 0.979 h 0.239 v 0.735 h 0.24 v 0.982 h -0.24 v 0.244 h 0.24 v 0.245 h 0.239 v 0.245 h 0.239 v 0.491 h 0.236 v 0.49 h -0.236 v 0.488 h -0.239 v 0.248 h 0.239 v 0.98 h -0.239 v 0.981 h -1.432 v 1.47 h 0.24 v 0.491 l 0.238,-0.002 v 0.245 h 0.715 v -0.245 h 0.478 v 0.735 h -0.957 v 0.492 h -0.236 v 0.734 h 0.236 V 37.5 h -0.474 v 1.961 h -0.479 v 0.246 h -0.239 v 0.491 h -0.239 v 0.244 h 0.239 v 0.246 h -0.239 v 0.491 h -0.236 v 0.243 h 0.236 v 0.246 h -0.236 v 0.491 h -0.24 v 0.49 h 0.112 0.128 l 1.776,0.362 15.605,5.968 21.778,7.957 18.149,6.587 2.336,0.745 0.239,-0.047 V 63.976 H 56.8 v -0.491 h 0.239 v -0.244 h 0.714 v -0.244 h 0.479 V 62.75 h 0.475 v -0.244 h 0.239 V 62.26 h 0.24 v -0.245 h 0.239 V 61.77 l 0.239,10e-4 V 61.278 L 59.9,61.28 v -0.247 h 0.239 V 60.79 L 57.374,57.061 51.201,48.232 41.283,33.69 36.322,9.949 36.162,9.904 21.922,5.848 18.656,5.474 9.583,2.866 -0.003,0.064 Z" style="fill:#878787;fill-opacity:1;fill-rule:evenodd;stroke:none" id="path30"/>
    </g>
    <g id="g32" transform="matrix(2.106747, 0, 0, 2.106747, 165.194199, 334.97052)">
      <path d="m 0,0 h -0.229 -0.233 v 0.492 h -0.236 v 0.979 h 0.236 v 0.49 h 0.239 v 1.471 h 0.24 v 0.49 h -0.24 v 0.491 h -0.239 v 0.488 h -0.236 v 0.245 h 0.475 v 1.472 h 0.24 v 0.49 L 0.255,7.107 V 8.088 H 0.017 v 0.491 h -0.24 v 0.49 H -0.462 V 9.56 L -0.698,9.558 v 0.246 h -0.239 v 0.245 h 0.239 v 0.245 h -0.478 v 0.491 h -0.24 v 0.489 h -0.239 v 1.959 h -0.236 v 1.228 h 0.236 v 1.472 h 0.239 v 0.98 h 0.24 v 0.243 h -0.24 v 0.738 l -0.239,-0.002 v 0.245 h -0.236 v 0.246 h -0.238 v 0.244 h 0.238 v 0.489 h 0.236 v 0.491 h 0.239 v 1.227 h 0.24 v 1.224 h -0.24 v 0.246 h -0.239 v 0.737 l -0.236,-0.003 v 0.736 h -0.238 v 1.47 h 0.238 v 0.246 h 0.236 v 0.492 l 0.239,-0.002 v 0.247 h -0.239 v 0.979 h 0.239 v 0.735 h 0.24 v 0.982 h -0.24 v 0.244 h 0.24 v 0.245 h 0.239 v 0.245 h 0.239 v 0.491 h 0.236 v 0.49 h -0.236 v 0.488 h -0.239 v 0.248 h 0.239 v 0.98 h -0.239 v 0.981 h -1.432 v 1.47 h 0.24 v 0.491 l 0.238,-0.002 v 0.245 h 0.715 v -0.245 h 0.478 v 0.735 h -0.957 v 0.492 h -0.236 v 0.734 h 0.236 V 37.5 h -0.474 v 1.961 h -0.479 v 0.246 h -0.239 v 0.491 h -0.239 v 0.244 h 0.239 v 0.246 h -0.239 v 0.491 h -0.236 v 0.243 h 0.236 v 0.246 h -0.236 v 0.491 h -0.24 v 0.49 h 0.112 0.128 l 1.776,0.362 15.605,5.968 21.778,7.957 18.149,6.587 2.336,0.745 0.239,-0.047 V 63.976 H 56.8 v -0.491 h 0.239 v -0.244 h 0.714 v -0.244 h 0.479 V 62.75 h 0.475 v -0.244 h 0.239 V 62.26 h 0.24 v -0.245 h 0.239 V 61.77 l 0.239,10e-4 V 61.278 L 59.9,61.28 v -0.247 h 0.239 V 60.79 L 57.374,57.061 51.201,48.232 41.283,33.69 36.322,9.949 36.162,9.904 21.922,5.848 18.656,5.474 9.583,2.866 -0.003,0.064 Z" style="fill:none;stroke:#f9f9f9;stroke-width:0.25;stroke-linecap:round;stroke-linejoin:round;stroke-miterlimit:4;stroke-dasharray:none;stroke-opacity:1" id="path34"/>
    </g>
    <g id="g36" transform="matrix(2.106747, 0, 0, 2.106747, 227.808151, 59.850567)">
      <path d="M 0,0 H -0.122 V 0.247 H -0.357 V 0.492 L -1.55,0.49 V 0.734 H -2.028 V 0.982 L -2.268,0.98 V 1.226 H -3.46 V 0.98 h -0.478 v 0.736 h -0.236 v 0.246 h -0.24 v 0.244 h 0.476 V 2.45 h 0.239 v 0.245 h 0.717 V 2.94 h 0.236 v 0.246 h 0.239 v 0.245 h 0.239 v 1.223 h 0.479 V 4.899 H -1.55 V 5.39 h 0.236 V 6.123 H -1.55 v 2.94 h -0.239 v 0.246 h 0.239 v 2.45 h -0.239 v 0.488 h -0.239 v 0.247 h -0.479 v 0.49 l -0.239,-0.002 v 0.247 h -0.475 v 0.49 h -0.478 v 0.245 h -0.239 v 0.242 h -0.715 v 0.491 h -0.478 v 0.247 l -0.475,-0.002 v 0.246 h -0.239 v 0.247 l -0.239,-0.002 v 0.246 h -0.24 v 0.244 h -0.239 v 0.243 h -1.193 v 0.247 H -8.47 v 0.243 h -0.478 v 0.247 h -1.432 v -0.247 h -0.475 v -0.243 h -0.957 v 0.243 h -0.236 v 0.49 h -0.478 v 0.247 h -0.239 v 0.49 h -0.239 v 0.244 h -0.24 v 0.246 h -0.235 v 0.243 h -0.718 v 0.245 h -0.475 v 0.245 h -0.239 v 0.246 h -0.479 v 0.245 h -0.714 v 0.245 h -0.478 v 0.245 h -0.479 v 0.245 h -0.235 v -0.245 h -0.479 v 0.245 h -0.714 v 0.243 h -0.718 v 0.49 h -0.239 v 0.247 h -0.475 v 0.244 h -0.239 v 0.49 h -0.953 v 0.244 h -0.479 v 0.245 h 0.239 v 0.981 h 0.24 v 0.245 h -0.24 v 1.47 h 0.476 v -0.247 l 0.239,0.003 V 24.25 h 0.239 v -1.225 h 0.239 V 22.29 h 0.239 v -0.244 h 0.954 v 0.244 h 0.238 v 0.735 h 0.24 v 0.246 h -0.478 v 0.49 h -0.24 v 2.205 h -0.239 v 0.243 h 0.239 V 26.7 h 0.24 v 0.246 l 0.953,-0.001 v 0.245 h 0.718 v 0.247 h 0.953 V 27.19 h 0.239 v -0.245 l 0.239,0.001 V 26.7 h 0.475 v 0.246 h -0.239 v 0.491 l -0.236,-0.001 v 1.714 h 0.236 v 0.491 h -0.953 v 0.246 h -0.239 v -0.246 h -0.24 V 29.15 h -0.475 v -0.246 h -0.478 V 28.66 h -0.239 v 0.244 h -0.954 v 0.246 h -0.239 v 0.737 l -0.239,-0.001 v 0.733 h 0.239 v 0.491 h 0.239 v 0.244 h 0.478 v 0.247 h 0.476 v 0.244 h 0.957 v 0.246 h 0.235 v 0.244 h 0.24 v 0.49 h 0.239 v 0.98 h -0.239 v 0.981 l -0.24,-0.003 v 0.736 h -0.475 v 0.737 h -0.239 v 0.98 l -0.239,-0.002 v 0.245 h -0.475 v 0.736 h -0.24 v 0.489 h -0.238 v 0.244 h -0.24 v 0.246 h -0.239 v 0.244 h -0.475 v 0.737 h -0.239 v 0.243 h -0.239 v 0.245 h -0.239 v 0.245 h -0.239 v 0.245 h -0.236 v 0.245 h -0.24 v 0.247 h -0.239 v 0.733 h -0.239 v 0.247 h -0.479 v 0.488 h -0.235 v 0.981 h -0.24 v 0.733 h -0.239 v 0.491 h -0.239 v 1.472 h -0.239 v 0.979 h -0.236 v 0.49 h -0.239 v 0.491 l -0.479,-0.003 v 0.736 h -0.239 v 0.979 h 0.239 v 0.491 h 0.24 v 1.285 l 1.235,0.325 17.906,7.082 -0.017,0.228 6.186,2.256 19.6,7.578 1.409,0.52 0.927,-3.806 2.398,-10.407 5.449,-22.16 3.597,-15.886 0.315,-1.044 -0.371,-0.189 -11.88,-5.707 z" style="fill:#878787;fill-opacity:1;fill-rule:evenodd;stroke:none" id="path38"/>
    </g>
    <g id="g40" transform="matrix(2.106747, 0, 0, 2.106747, 227.808151, 59.850567)">
      <path d="M 0,0 H -0.122 V 0.247 H -0.357 V 0.492 L -1.55,0.49 V 0.734 H -2.028 V 0.982 L -2.268,0.98 V 1.226 H -3.46 V 0.98 h -0.478 v 0.736 h -0.236 v 0.246 h -0.24 v 0.244 h 0.476 V 2.45 h 0.239 v 0.245 h 0.717 V 2.94 h 0.236 v 0.246 h 0.239 v 0.245 h 0.239 v 1.223 h 0.479 V 4.899 H -1.55 V 5.39 h 0.236 V 6.123 H -1.55 v 2.94 h -0.239 v 0.246 h 0.239 v 2.45 h -0.239 v 0.488 h -0.239 v 0.247 h -0.479 v 0.49 l -0.239,-0.002 v 0.247 h -0.475 v 0.49 h -0.478 v 0.245 h -0.239 v 0.242 h -0.715 v 0.491 h -0.478 v 0.247 l -0.475,-0.002 v 0.246 h -0.239 v 0.247 l -0.239,-0.002 v 0.246 h -0.24 v 0.244 h -0.239 v 0.243 h -1.193 v 0.247 H -8.47 v 0.243 h -0.478 v 0.247 h -1.432 v -0.247 h -0.475 v -0.243 h -0.957 v 0.243 h -0.236 v 0.49 h -0.478 v 0.247 h -0.239 v 0.49 h -0.239 v 0.244 h -0.24 v 0.246 h -0.235 v 0.243 h -0.718 v 0.245 h -0.475 v 0.245 h -0.239 v 0.246 h -0.479 v 0.245 h -0.714 v 0.245 h -0.478 v 0.245 h -0.479 v 0.245 h -0.235 v -0.245 h -0.479 v 0.245 h -0.714 v 0.243 h -0.718 v 0.49 h -0.239 v 0.247 h -0.475 v 0.244 h -0.239 v 0.49 h -0.953 v 0.244 h -0.479 v 0.245 h 0.239 v 0.981 h 0.24 v 0.245 h -0.24 v 1.47 h 0.476 v -0.247 l 0.239,0.003 V 24.25 h 0.239 v -1.225 h 0.239 V 22.29 h 0.239 v -0.244 h 0.954 v 0.244 h 0.238 v 0.735 h 0.24 v 0.246 h -0.478 v 0.49 h -0.24 v 2.205 h -0.239 v 0.243 h 0.239 V 26.7 h 0.24 v 0.246 l 0.953,-0.001 v 0.245 h 0.718 v 0.247 h 0.953 V 27.19 h 0.239 v -0.245 l 0.239,0.001 V 26.7 h 0.475 v 0.246 h -0.239 v 0.491 l -0.236,-0.001 v 1.714 h 0.236 v 0.491 h -0.953 v 0.246 h -0.239 v -0.246 h -0.24 V 29.15 h -0.475 v -0.246 h -0.478 V 28.66 h -0.239 v 0.244 h -0.954 v 0.246 h -0.239 v 0.737 l -0.239,-0.001 v 0.733 h 0.239 v 0.491 h 0.239 v 0.244 h 0.478 v 0.247 h 0.476 v 0.244 h 0.957 v 0.246 h 0.235 v 0.244 h 0.24 v 0.49 h 0.239 v 0.98 h -0.239 v 0.981 l -0.24,-0.003 v 0.736 h -0.475 v 0.737 h -0.239 v 0.98 l -0.239,-0.002 v 0.245 h -0.475 v 0.736 h -0.24 v 0.489 h -0.238 v 0.244 h -0.24 v 0.246 h -0.239 v 0.244 h -0.475 v 0.737 h -0.239 v 0.243 h -0.239 v 0.245 h -0.239 v 0.245 h -0.239 v 0.245 h -0.236 v 0.245 h -0.24 v 0.247 h -0.239 v 0.733 h -0.239 v 0.247 h -0.479 v 0.488 h -0.235 v 0.981 h -0.24 v 0.733 h -0.239 v 0.491 h -0.239 v 1.472 h -0.239 v 0.979 h -0.236 v 0.49 h -0.239 v 0.491 l -0.479,-0.003 v 0.736 h -0.239 v 0.979 h 0.239 v 0.491 h 0.24 v 1.285 l 1.235,0.325 17.906,7.082 -0.017,0.228 6.186,2.256 19.6,7.578 1.409,0.52 0.927,-3.806 2.398,-10.407 5.449,-22.16 3.597,-15.886 0.315,-1.044 -0.371,-0.189 -11.88,-5.707 z" style="fill:none;stroke:#f9f9f9;stroke-width:0.25;stroke-linecap:round;stroke-linejoin:round;stroke-miterlimit:4;stroke-dasharray:none;stroke-opacity:1" id="path42"/>
    </g>
    <g id="g44" transform="matrix(2.106747, 0, 0, 2.106747, 158.194901, 424.822052)">
      <path d="m 0,0 v 0.49 h -0.239 v 1.716 h -0.24 V 2.451 H -0.718 V 2.94 h -0.239 v 0.491 h -0.236 v 0.245 h 0.236 v 0.246 h -0.236 v 0.245 h 0.236 v 0.246 h -0.236 v 1.225 h -0.478 v 0.49 H -1.91 v 0.243 h -0.239 v 0.491 h -0.24 V 7.354 H -2.625 V 7.601 L -2.864,7.599 v 0.734 h -0.239 v 0.738 h 0.239 V 9.562 L -3.103,9.56 v 0.245 h -0.239 v 1.227 h 0.239 v 0.489 h 0.239 v 0.735 h -0.239 v 1.471 h 0.239 v 0.49 h 0.239 v 0.244 h 0.476 v 1.717 h -0.24 v 1.473 l -0.236,-0.002 v 0.491 h -0.239 v 0.735 h 0.239 v 0.247 L -2.864,19.12 v 1.716 h -0.239 v 0.491 h 0.239 v 0.49 h -0.239 v 0.98 h 0.239 v 0.491 h -0.239 v 0.245 h 0.239 v 0.246 h -0.239 v 0.49 h -0.239 v 1.96 h 0.239 v 0.98 h -0.239 v 0.982 h -0.239 v 1.228 h 0.239 v 0.489 h 0.239 v 0.98 h 0.239 v 0.244 h 0.239 v 0.246 h 0.476 v 0.245 h 0.717 v 0.246 h 0.475 v 0.245 h -0.236 v 0.489 h 0.236 v 0.246 h 0.239 v 0.245 h 0.239 v 0.49 h 0.24 v 0.491 H 0 v 0.246 h 0.236 v 0.491 h 0.239 v 0.245 l 0.239,-0.002 v 0.246 h 0.24 v 0.491 h 0.239 v 0.49 h 0.239 v 0.245 h 0.235 v 0.489 h 0.24 v 0.491 h 0.239 v 0.245 h 0.239 v 0.492 h 0.24 v 0.247 L 3.1,38.488 v 0.246 h 0.239 v 0.245 l 0.239,-10e-4 v 0.245 h 0.239 v 0.248 l 0.239,-0.003 v 0.246 h 0.236 v 0.245 h 0.239 v 0.246 h 0.24 V 40.45 H 5.01 v 0.491 h 0.239 v 0.491 h 0.236 v 0.489 h 0.239 v 0.246 h 0.239 v 0.245 h 0.239 v 0.242 h 0.239 v 0.248 h 0.24 v 0.735 h 0.236 v 0.247 h 0.239 v 0.489 h 0.239 v 0.491 h 0.239 v 1.715 h 0.239 v 0.737 l 1.193,-0.002 v 0.245 h 0.239 v 0.246 h 0.236 v 0.245 h 1.192 v 0.737 h 0.24 v 0.243 h 0.717 v 0.247 h 1.193 V 49.03 h 0.475 v 0.247 l 0.239,-0.002 v 0.246 h 0.239 v 0.245 h 0.24 v 0.245 h 0.238 v 0.491 h 0.24 v 0.244 h 1.428 V 50.502 H 16.7 v -0.245 h 0.239 v 0.245 h 0.239 v 0.491 h 0.236 v 0.244 h 0.239 v 0.491 h 1.432 v -0.246 h 0.954 v 0.246 h 0.239 v 0.49 h 0.478 v 0.246 h 0.475 v 0.244 h 0.239 v 0.247 h 0.239 v 0.243 h 0.24 v 0.492 h 0.239 v 0.245 h 0.475 v 0.246 H 23.38 V 53.69 h 0.24 v -0.247 l 0.235,0.003 v -0.248 h 0.957 v 0.248 l 0.714,-0.003 v 0.247 h 1.432 v 0.491 h 0.24 v 0.244 h 0.239 v 0.246 h 0.236 v -0.246 h 1.91 v -0.244 h 0.239 v -0.246 h 0.239 V 53.69 h 0.475 v -0.247 l 0.718,0.003 v -0.248 h 0.239 v -0.243 h 0.236 v -0.247 h 0.239 v -0.244 h 0.239 v -0.246 h 0.479 v 0.246 h 1.192 v -0.246 h 0.239 v -0.245 h 0.236 v -0.491 h 0.239 v -0.489 h 0.24 v -0.736 h 0.953 v -0.246 h 0.479 v -0.245 h 0.238 v -0.245 h 0.24 v -0.246 l 0.714,0.002 V 49.03 h 0.714 v -0.243 h 0.24 v -0.246 h 0.239 v -1.227 h 0.478 v 0.245 h 0.239 v 0.246 h 0.236 v 0.245 h 0.239 v 0.245 h 0.954 V 48.05 h 0.239 v -0.245 h -0.239 v -0.489 h -0.236 v -0.737 h 0.236 v -0.245 h 0.478 v -0.246 h 0.478 v -0.244 h 0.24 v -0.246 h 0.236 v -0.245 h 0.478 v 0.245 h 0.714 v -0.245 l 0.239,10e-4 v -0.981 h 0.239 v -0.245 h 0.718 v -0.246 l 0.714,0.002 v -0.247 h 0.239 v -0.245 l 0.24,10e-4 v -0.491 h 0.235 v -0.248 h 0.24 v -0.242 h 0.239 v -0.245 h 0.239 V 41.921 H 47 v -0.245 h 0.476 v -0.247 l 0.238,0.003 v -0.247 h 0.24 v -0.491 h 0.239 V 40.45 h 0.239 v -0.491 h 0.236 v -0.245 h 0.239 v -0.246 l 0.239,0.003 v -0.248 h 0.24 v -0.245 l 0.239,10e-4 v -0.245 h 0.239 v -0.246 l 0.236,0.003 v -0.247 h 0.239 v -0.246 h 0.239 v -0.246 h 0.239 v -0.245 h 0.24 v -0.491 h 0.235 v -0.243 h 1.911 v -0.246 h 0.953 v -0.245 h 1.193 v -0.246 h 0.239 v -0.244 h 0.239 v -0.247 h 0.239 v -0.244 h 0.239 v -0.246 l 0.475,0.002 v -0.245 h 0.24 v -0.248 h 0.239 v -0.243 h 0.239 v -0.246 h 0.239 V 33.83 h -0.239 v -0.246 h -0.239 v -0.245 h 0.239 v -0.245 h 0.239 v -0.245 h 0.236 v -0.246 h 0.239 V 32.36 h 0.239 v -0.246 h 0.239 v -0.245 h 0.24 v -0.246 h 0.475 v -0.491 h 0.239 v -0.244 h 0.239 v -0.49 h 0.24 v -0.245 h 0.238 v -0.491 h 0.237 v -0.246 l -0.237,0.003 v -0.737 h -0.478 v -0.245 h -0.478 v -0.246 h -0.239 v -0.736 l 0.957,0.003 v -0.249 h 0.238 v -0.735 l 0.954,0.001 v -0.246 h 0.239 v -0.981 h 0.236 v -0.245 l 0.239,0.002 V 24.76 h 0.24 v -0.247 l 0.239,10e-4 v -0.491 h 0.239 v -0.49 H 62.508 V 23.044 H 62.269 V 22.797 H 61.79 v -0.244 h -1.429 v -0.245 h -0.478 v -0.246 l -0.239,0.002 V 21.618 L 57.308,20.874 39.16,14.286 17.381,6.33 1.776,0.362 Z" style="fill:#878787;fill-opacity:1;fill-rule:evenodd;stroke:none" id="path46"/>
    </g>
    <g id="g48" transform="matrix(2.106747, 0, 0, 2.106747, 158.194901, 424.822052)">
      <path d="m 0,0 v 0.49 h -0.239 v 1.716 h -0.24 V 2.451 H -0.718 V 2.94 h -0.239 v 0.491 h -0.236 v 0.245 h 0.236 v 0.246 h -0.236 v 0.245 h 0.236 v 0.246 h -0.236 v 1.225 h -0.478 v 0.49 H -1.91 v 0.243 h -0.239 v 0.491 h -0.24 V 7.354 H -2.625 V 7.601 L -2.864,7.599 v 0.734 h -0.239 v 0.738 h 0.239 V 9.562 L -3.103,9.56 v 0.245 h -0.239 v 1.227 h 0.239 v 0.489 h 0.239 v 0.735 h -0.239 v 1.471 h 0.239 v 0.49 h 0.239 v 0.244 h 0.476 v 1.717 h -0.24 v 1.473 l -0.236,-0.002 v 0.491 h -0.239 v 0.735 h 0.239 v 0.247 L -2.864,19.12 v 1.716 h -0.239 v 0.491 h 0.239 v 0.49 h -0.239 v 0.98 h 0.239 v 0.491 h -0.239 v 0.245 h 0.239 v 0.246 h -0.239 v 0.49 h -0.239 v 1.96 h 0.239 v 0.98 h -0.239 v 0.982 h -0.239 v 1.228 h 0.239 v 0.489 h 0.239 v 0.98 h 0.239 v 0.244 h 0.239 v 0.246 h 0.476 v 0.245 h 0.717 v 0.246 h 0.475 v 0.245 h -0.236 v 0.489 h 0.236 v 0.246 h 0.239 v 0.245 h 0.239 v 0.49 h 0.24 v 0.491 H 0 v 0.246 h 0.236 v 0.491 h 0.239 v 0.245 l 0.239,-0.002 v 0.246 h 0.24 v 0.491 h 0.239 v 0.49 h 0.239 v 0.245 h 0.235 v 0.489 h 0.24 v 0.491 h 0.239 v 0.245 h 0.239 v 0.492 h 0.24 v 0.247 L 3.1,38.488 v 0.246 h 0.239 v 0.245 l 0.239,-10e-4 v 0.245 h 0.239 v 0.248 l 0.239,-0.003 v 0.246 h 0.236 v 0.245 h 0.239 v 0.246 h 0.24 V 40.45 H 5.01 v 0.491 h 0.239 v 0.491 h 0.236 v 0.489 h 0.239 v 0.246 h 0.239 v 0.245 h 0.239 v 0.242 h 0.239 v 0.248 h 0.24 v 0.735 h 0.236 v 0.247 h 0.239 v 0.489 h 0.239 v 0.491 h 0.239 v 1.715 h 0.239 v 0.737 l 1.193,-0.002 v 0.245 h 0.239 v 0.246 h 0.236 v 0.245 h 1.192 v 0.737 h 0.24 v 0.243 h 0.717 v 0.247 h 1.193 V 49.03 h 0.475 v 0.247 l 0.239,-0.002 v 0.246 h 0.239 v 0.245 h 0.24 v 0.245 h 0.238 v 0.491 h 0.24 v 0.244 h 1.428 V 50.502 H 16.7 v -0.245 h 0.239 v 0.245 h 0.239 v 0.491 h 0.236 v 0.244 h 0.239 v 0.491 h 1.432 v -0.246 h 0.954 v 0.246 h 0.239 v 0.49 h 0.478 v 0.246 h 0.475 v 0.244 h 0.239 v 0.247 h 0.239 v 0.243 h 0.24 v 0.492 h 0.239 v 0.245 h 0.475 v 0.246 H 23.38 V 53.69 h 0.24 v -0.247 l 0.235,0.003 v -0.248 h 0.957 v 0.248 l 0.714,-0.003 v 0.247 h 1.432 v 0.491 h 0.24 v 0.244 h 0.239 v 0.246 h 0.236 v -0.246 h 1.91 v -0.244 h 0.239 v -0.246 h 0.239 V 53.69 h 0.475 v -0.247 l 0.718,0.003 v -0.248 h 0.239 v -0.243 h 0.236 v -0.247 h 0.239 v -0.244 h 0.239 v -0.246 h 0.479 v 0.246 h 1.192 v -0.246 h 0.239 v -0.245 h 0.236 v -0.491 h 0.239 v -0.489 h 0.24 v -0.736 h 0.953 v -0.246 h 0.479 v -0.245 h 0.238 v -0.245 h 0.24 v -0.246 l 0.714,0.002 V 49.03 h 0.714 v -0.243 h 0.24 v -0.246 h 0.239 v -1.227 h 0.478 v 0.245 h 0.239 v 0.246 h 0.236 v 0.245 h 0.239 v 0.245 h 0.954 V 48.05 h 0.239 v -0.245 h -0.239 v -0.489 h -0.236 v -0.737 h 0.236 v -0.245 h 0.478 v -0.246 h 0.478 v -0.244 h 0.24 v -0.246 h 0.236 v -0.245 h 0.478 v 0.245 h 0.714 v -0.245 l 0.239,10e-4 v -0.981 h 0.239 v -0.245 h 0.718 v -0.246 l 0.714,0.002 v -0.247 h 0.239 v -0.245 l 0.24,10e-4 v -0.491 h 0.235 v -0.248 h 0.24 v -0.242 h 0.239 v -0.245 h 0.239 V 41.921 H 47 v -0.245 h 0.476 v -0.247 l 0.238,0.003 v -0.247 h 0.24 v -0.491 h 0.239 V 40.45 h 0.239 v -0.491 h 0.236 v -0.245 h 0.239 v -0.246 l 0.239,0.003 v -0.248 h 0.24 v -0.245 l 0.239,10e-4 v -0.245 h 0.239 v -0.246 l 0.236,0.003 v -0.247 h 0.239 v -0.246 h 0.239 v -0.246 h 0.239 v -0.245 h 0.24 v -0.491 h 0.235 v -0.243 h 1.911 v -0.246 h 0.953 v -0.245 h 1.193 v -0.246 h 0.239 v -0.244 h 0.239 v -0.247 h 0.239 v -0.244 h 0.239 v -0.246 l 0.475,0.002 v -0.245 h 0.24 v -0.248 h 0.239 v -0.243 h 0.239 v -0.246 h 0.239 V 33.83 h -0.239 v -0.246 h -0.239 v -0.245 h 0.239 v -0.245 h 0.239 v -0.245 h 0.236 v -0.246 h 0.239 V 32.36 h 0.239 v -0.246 h 0.239 v -0.245 h 0.24 v -0.246 h 0.475 v -0.491 h 0.239 v -0.244 h 0.239 v -0.49 h 0.24 v -0.245 h 0.238 v -0.491 h 0.237 v -0.246 l -0.237,0.003 v -0.737 h -0.478 v -0.245 h -0.478 v -0.246 h -0.239 v -0.736 l 0.957,0.003 v -0.249 h 0.238 v -0.735 l 0.954,0.001 v -0.246 h 0.239 v -0.981 h 0.236 v -0.245 l 0.239,0.002 V 24.76 h 0.24 v -0.247 l 0.239,10e-4 v -0.491 h 0.239 v -0.49 H 62.508 V 23.044 H 62.269 V 22.797 H 61.79 v -0.244 h -1.429 v -0.245 h -0.478 v -0.246 l -0.239,0.002 V 21.618 L 57.308,20.874 39.16,14.286 17.381,6.33 1.776,0.362 Z" style="fill:none;stroke:#f9f9f9;stroke-width:0.25;stroke-linecap:round;stroke-linejoin:round;stroke-miterlimit:4;stroke-dasharray:none;stroke-opacity:1" id="path50"/>
    </g>
    <g id="g52" transform="matrix(2.106747, 0, 0, 2.106747, 327.474396, 227.421463)">
      <path d="m 0,0 -3.749,17.504 -9.314,9.817 -4.476,3.975 -1.363,0.746 5.115,7.207 4.233,5.966 2.782,2.113 8.954,6.214 5.324,3.853 2.566,1.498 v -0.246 l 0.236,0.002 v -0.247 h 0.239 v -0.488 h 0.239 v -0.737 h 0.478 V 56.442 H 11.5 v -0.736 l 0.239,0.002 v -0.491 h 0.24 v -0.245 h 0.239 v -0.246 h 0.239 v -0.49 h 0.239 v -0.245 h 0.236 v -0.244 h 0.239 v -0.245 h 0.239 v -0.246 h 0.239 v 0.735 h 0.715 v -0.489 h -0.239 v -0.491 h 0.239 v -0.245 h 0.239 v -0.492 h 0.479 v -0.245 h 0.474 v -0.243 h 0.239 v -0.491 h 0.24 V 51.05 h 0.953 v -0.246 h 0.24 v 0.246 h 0.239 v -0.246 h 0.239 v -0.49 h -0.478 v 0.246 h -0.24 v -0.246 h -0.475 v -0.489 h 0.236 v -0.247 l 0.479,0.002 v -0.246 h 0.239 v -0.245 h 0.239 v -0.49 h 0.475 v -0.246 h 0.239 v -0.49 h 0.239 v -0.489 h 0.239 v -0.245 h 0.24 v -0.49 h 0.235 v -0.246 h 0.239 v -0.245 l 0.24,10e-4 v -0.247 h 0.717 v -0.243 h 0.476 v -0.245 h 0.717 v -0.246 h 0.236 v -0.244 h 0.479 v -0.246 h 0.239 v -0.489 h 0.238 v -0.246 h 0.239 v -0.489 h 0.476 v -0.246 h 0.239 v -0.245 h 0.479 v -0.245 h 0.474 v -0.245 h 0.24 v -0.246 l 0.239,0.002 v -0.247 h 0.239 v -0.244 h 0.475 v -0.247 h 1.432 v -0.243 h 0.717 v -0.491 h 0.239 v -0.245 h 1.193 v -0.246 h 1.668 v 0.246 h 0.239 v -0.246 h 0.239 v 0.246 h 0.714 v -0.246 h 0.479 V 39.53 h 0.239 v -0.243 h 0.478 v -0.245 h 0.237 v -0.246 h 0.956 v -0.245 h 0.954 v -0.246 h 0.239 v 0.246 h 0.238 v -0.246 l 0.476,0.003 v -0.247 h 0.479 v -0.246 h 0.668 L 32.089,32.006 18.853,18.927 11.019,11.063 6.33,6.359 Z" style="fill:#878787;fill-opacity:1;fill-rule:evenodd;stroke:none" id="path54"/>
    </g>
    <g id="g56" transform="matrix(2.106747, 0, 0, 2.106747, 327.474396, 227.421463)">
      <path d="m 0,0 -3.749,17.504 -9.314,9.817 -4.476,3.975 -1.363,0.746 5.115,7.207 4.233,5.966 2.782,2.113 8.954,6.214 5.324,3.853 2.566,1.498 v -0.246 l 0.236,0.002 v -0.247 h 0.239 v -0.488 h 0.239 v -0.737 h 0.478 V 56.442 H 11.5 v -0.736 l 0.239,0.002 v -0.491 h 0.24 v -0.245 h 0.239 v -0.246 h 0.239 v -0.49 h 0.239 v -0.245 h 0.236 v -0.244 h 0.239 v -0.245 h 0.239 v -0.246 h 0.239 v 0.735 h 0.715 v -0.489 h -0.239 v -0.491 h 0.239 v -0.245 h 0.239 v -0.492 h 0.479 v -0.245 h 0.474 v -0.243 h 0.239 v -0.491 h 0.24 V 51.05 h 0.953 v -0.246 h 0.24 v 0.246 h 0.239 v -0.246 h 0.239 v -0.49 h -0.478 v 0.246 h -0.24 v -0.246 h -0.475 v -0.489 h 0.236 v -0.247 l 0.479,0.002 v -0.246 h 0.239 v -0.245 h 0.239 v -0.49 h 0.475 v -0.246 h 0.239 v -0.49 h 0.239 v -0.489 h 0.239 v -0.245 h 0.24 v -0.49 h 0.235 v -0.246 h 0.239 v -0.245 l 0.24,10e-4 v -0.247 h 0.717 v -0.243 h 0.476 v -0.245 h 0.717 v -0.246 h 0.236 v -0.244 h 0.479 v -0.246 h 0.239 v -0.489 h 0.238 v -0.246 h 0.239 v -0.489 h 0.476 v -0.246 h 0.239 v -0.245 h 0.479 v -0.245 h 0.474 v -0.245 h 0.24 v -0.246 l 0.239,0.002 v -0.247 h 0.239 v -0.244 h 0.475 v -0.247 h 1.432 v -0.243 h 0.717 v -0.491 h 0.239 v -0.245 h 1.193 v -0.246 h 1.668 v 0.246 h 0.239 v -0.246 h 0.239 v 0.246 h 0.714 v -0.246 h 0.479 V 39.53 h 0.239 v -0.243 h 0.478 v -0.245 h 0.237 v -0.246 h 0.956 v -0.245 h 0.954 v -0.246 h 0.239 v 0.246 h 0.238 v -0.246 l 0.476,0.003 v -0.247 h 0.479 v -0.246 h 0.668 L 32.089,32.006 18.853,18.927 11.019,11.063 6.33,6.359 Z" style="fill:none;stroke:#f9f9f9;stroke-width:0.25;stroke-linecap:round;stroke-linejoin:round;stroke-miterlimit:4;stroke-dasharray:none;stroke-opacity:1" id="path58"/>
    </g>
    <g id="g60" transform="matrix(2.106747, 0, 0, 2.106747, 501.488953, 254.732925)">
      <path d="m 0,0 -13.151,-12.649 -21.251,-21.156 -8.001,-7.882 -13.797,18.74 -7.411,9.849 -6.321,8.504 -1.648,2.694 7.834,7.863 13.236,13.079 5.849,5.809 h 0.764 v -0.243 h 0.239 v -0.246 h 0.474 v -0.245 h 0.24 v -0.245 h 0.239 v -0.245 h 0.239 v -0.246 l 0.237,0.002 v -0.247 h 0.239 v -0.734 h 0.238 v -0.491 h 0.239 v -0.244 h 0.24 v -0.246 h 0.239 v -0.245 h 0.236 V 20.93 h 0.239 v -0.243 h 0.24 v -0.248 h 0.239 v -0.242 h 0.238 v -0.246 h 0.476 v -0.245 l 0.239,0.002 V 19.46 h 0.239 v -0.49 h 0.24 v -0.491 h 0.239 v -0.243 h 0.953 v -0.245 h 0.239 v -0.245 h 0.475 V 17.5 h 0.239 v -0.49 h 0.239 v -0.245 l 0.24,0.002 v -0.249 h 0.475 v -0.242 h 0.478 V 16.03 h 0.239 v -0.245 h 0.239 V 15.54 h 0.476 v -0.246 l 0.478,0.002 v -0.248 h 0.24 v -0.244 l 0.474,0.002 v -0.245 h 0.239 v -0.246 h 0.24 V 14.07 h 0.239 v -0.246 h 1.192 v 0.246 h 0.953 v 0.245 h 0.479 v 0.246 h 0.476 v 0.245 h 1.192 v -0.245 h 0.718 v -0.246 h 0.477 V 14.07 h 0.237 v -0.246 h 0.239 V 13.58 h 0.239 v -0.246 l 0.239,0.002 v -0.491 h 0.24 v -1.471 h 0.235 V 10.64 h 0.239 v -0.491 h -0.239 V 8.923 l 0.239,10e-4 V 8.678 h 0.24 V 8.432 h 0.478 V 8.189 h 0.239 V 7.943 h 0.475 V 7.699 h 0.954 v 0.244 h 1.195 v 0.246 h 0.476 V 7.943 h 0.718 V 7.699 h 0.235 V 7.453 h 0.479 V 7.208 h 0.478 V 6.962 l 0.953,0.002 v -0.49 h 0.239 V 5.738 h 0.24 v -0.49 h 0.474 V 5.002 h 0.24 V 4.758 h 0.478 V 4.514 h 0.476 V 4.269 h 0.716 V 4.023 h 0.24 V 3.778 h 0.236 V 3.532 h 0.239 V 3.041 h 0.479 V 2.797 h 0.478 V 2.554 h 0.236 V 2.062 h 0.239 V 1.817 h 0.239 V 1.571 h 0.479 V 1.327 h 0.474 V 1.081 h 0.479 v -0.49 h 0.478 V 0.346 l 0.236,0.002 V 0.102 h 0.239 v -0.245 h 0.239 v -0.491 h 0.479 v -0.245 h 0.236 v -0.49 h 0.239 v -0.245 h 0.717 v 0.245 h 0.476 v -0.245 h 1.431 v 0.245 h 0.957 v 0.247 h 0.236 v 0.488 h 0.239 v 0.491 h 0.239 v 0.245 h 0.239 v 0.246 l 0.24,-0.002 v 0.245 h 0.236 V 0.346 h 0.717 v 0.245 h 0.239 V 0.838 L -3.1,0.836 v 0.245 h 0.237 v 0.246 h 0.956 v 0.244 h 0.954 V 1.327 h 0.239 V 1.081 h 0.239 v -0.49 h 0.236 V 0.346 L 0,0.348 Z" style="fill:#878787;fill-opacity:1;fill-rule:evenodd;stroke:none" id="path62"/>
    </g>
    <g id="g64" transform="matrix(2.106747, 0, 0, 2.106747, 501.488953, 254.732925)">
      <path d="m 0,0 -13.151,-12.649 -21.251,-21.156 -8.001,-7.882 -13.797,18.74 -7.411,9.849 -6.321,8.504 -1.648,2.694 7.834,7.863 13.236,13.079 5.849,5.809 h 0.764 v -0.243 h 0.239 v -0.246 h 0.474 v -0.245 h 0.24 v -0.245 h 0.239 v -0.245 h 0.239 v -0.246 l 0.237,0.002 v -0.247 h 0.239 v -0.734 h 0.238 v -0.491 h 0.239 v -0.244 h 0.24 v -0.246 h 0.239 v -0.245 h 0.236 V 20.93 h 0.239 v -0.243 h 0.24 v -0.248 h 0.239 v -0.242 h 0.238 v -0.246 h 0.476 v -0.245 l 0.239,0.002 V 19.46 h 0.239 v -0.49 h 0.24 v -0.491 h 0.239 v -0.243 h 0.953 v -0.245 h 0.239 v -0.245 h 0.475 V 17.5 h 0.239 v -0.49 h 0.239 v -0.245 l 0.24,0.002 v -0.249 h 0.475 v -0.242 h 0.478 V 16.03 h 0.239 v -0.245 h 0.239 V 15.54 h 0.476 v -0.246 l 0.478,0.002 v -0.248 h 0.24 v -0.244 l 0.474,0.002 v -0.245 h 0.239 v -0.246 h 0.24 V 14.07 h 0.239 v -0.246 h 1.192 v 0.246 h 0.953 v 0.245 h 0.479 v 0.246 h 0.476 v 0.245 h 1.192 v -0.245 h 0.718 v -0.246 h 0.477 V 14.07 h 0.237 v -0.246 h 0.239 V 13.58 h 0.239 v -0.246 l 0.239,0.002 v -0.491 h 0.24 v -1.471 h 0.235 V 10.64 h 0.239 v -0.491 h -0.239 V 8.923 l 0.239,10e-4 V 8.678 h 0.24 V 8.432 h 0.478 V 8.189 h 0.239 V 7.943 h 0.475 V 7.699 h 0.954 v 0.244 h 1.195 v 0.246 h 0.476 V 7.943 h 0.718 V 7.699 h 0.235 V 7.453 h 0.479 V 7.208 h 0.478 V 6.962 l 0.953,0.002 v -0.49 h 0.239 V 5.738 h 0.24 v -0.49 h 0.474 V 5.002 h 0.24 V 4.758 h 0.478 V 4.514 h 0.476 V 4.269 h 0.716 V 4.023 h 0.24 V 3.778 h 0.236 V 3.532 h 0.239 V 3.041 h 0.479 V 2.797 h 0.478 V 2.554 h 0.236 V 2.062 h 0.239 V 1.817 h 0.239 V 1.571 h 0.479 V 1.327 h 0.474 V 1.081 h 0.479 v -0.49 h 0.478 V 0.346 l 0.236,0.002 V 0.102 h 0.239 v -0.245 h 0.239 v -0.491 h 0.479 v -0.245 h 0.236 v -0.49 h 0.239 v -0.245 h 0.717 v 0.245 h 0.476 v -0.245 h 1.431 v 0.245 h 0.957 v 0.247 h 0.236 v 0.488 h 0.239 v 0.491 h 0.239 v 0.245 h 0.239 v 0.246 l 0.24,-0.002 v 0.245 h 0.236 V 0.346 h 0.717 v 0.245 h 0.239 V 0.838 L -3.1,0.836 v 0.245 h 0.237 v 0.246 h 0.956 v 0.244 h 0.954 V 1.327 h 0.239 V 1.081 h 0.239 v -0.49 h 0.236 V 0.346 L 0,0.348 Z" style="fill:none;stroke:#f9f9f9;stroke-width:0.25;stroke-linecap:round;stroke-linejoin:round;stroke-miterlimit:4;stroke-dasharray:none;stroke-opacity:1" id="path66"/>
    </g>
    <g id="g68" transform="matrix(2.106747, 0, 0, 2.106747, 217.081024, 185.988083)">
      <path d="m 0,0 0.017,-0.229 -17.906,-7.082 -1.236,-0.324 v 0.184 h -0.239 v 0.247 h 0.239 v 0.243 h -0.239 v 0.736 h -0.239 v 0.245 h -0.239 v 0.246 h -0.236 v 0.733 h -0.239 v 1.96 h -0.239 v 0.98 h -0.239 v 0.491 h -0.24 v 0.734 h -0.236 v 1.717 h 0.236 v 0.49 L -21.271,1.37 v 0.245 h 0.236 v 2.696 h 0.24 v 0.978 h 0.239 v 1.227 h -0.239 V 7.74 h 0.239 v 0.981 l 0.239,-0.002 v 0.735 h 0.239 v 0.736 h 0.236 v 1.472 l -0.236,-0.002 v 0.736 h -0.239 v 1.469 h -0.239 v 0.737 h -0.239 v 0.979 h 0.239 v 0.981 h 0.239 v 0.733 h 0.239 v 0.736 h 0.236 v 1.714 h -0.475 v 0.491 h -0.239 v 0.245 h -0.239 v 0.491 h -0.24 v 0.489 h -0.236 v 0.49 h 0.236 v 1.47 h 0.479 v 0.245 h 0.239 v 0.491 h 0.239 v 0.734 h -0.239 v 1.716 h -0.239 v 0.735 h -0.479 v 0.246 l -0.236,-0.001 v 0.245 h -0.478 v 0.735 h -0.239 v 1.225 h 0.239 v 1.96 h -0.239 v 1.717 l 0.239,-0.002 v 1.47 h 0.239 v 0.248 h 0.239 v 1.469 h 0.236 v 0.979 h 0.24 v 0.491 h 0.239 v 0.49 h -0.239 v 0.49 h -0.24 v 0.245 h -0.236 v 0.246 l -0.239,-0.002 v 0.491 h -0.239 v 0.246 h -0.479 v 0.244 h -0.713 v 0.246 h -0.479 v 1.716 l 0.239,-0.001 v 1.225 h -0.239 v 0.735 h -0.239 v 0.49 h -0.236 v 0.491 h -0.239 v 0.491 h -0.24 v 0.979 h -0.238 v 1.224 h 0.238 v 0.491 h 0.24 v 0.488 h 0.239 v 0.248 l 0.236,-10e-4 v 0.245 h 0.239 v 0.981 h 0.239 v 0.245 h 0.24 v 0.49 h 0.239 v 0.489 h -0.239 v 0.492 l 0.239,-10e-4 v 0.733 h 0.236 v 0.491 h -0.236 v 0.981 h 0.236 v 3.186 h -0.236 v 0.247 l -0.239,-0.003 v 0.736 h -0.24 v 0.246 h -0.239 v 1.225 h -0.239 v 2.942 h 0.239 v 0.735 l -0.239,-0.002 V 64.1 h -0.236 v 0.245 h -0.239 v 0.49 h -0.24 v 0.734 h 0.24 v 0.491 h 0.239 v 0.49 h 0.236 v 1.227 h -0.236 v 0.489 h -0.239 v 0.245 h 0.239 v 0.245 h -0.239 v 0.736 h -0.24 v 0.735 h -0.238 l -0.017,0.49 -0.003,0.064 9.587,2.802 9.072,2.607 3.266,0.375 14.24,4.056 0.279,-1.571 2.159,-16.7 L 13.266,60.657 11.812,56.184 10.36,50.838 -2.828,37.667 -1.736,23.378 -0.891,12.816 Z" style="fill:#878787;fill-opacity:1;fill-rule:evenodd;stroke:none" id="path70"/>
    </g>
    <g id="g72" transform="matrix(2.106747, 0, 0, 2.106747, 217.081024, 185.988083)">
      <path d="m 0,0 0.017,-0.229 -17.906,-7.082 -1.236,-0.324 v 0.184 h -0.239 v 0.247 h 0.239 v 0.243 h -0.239 v 0.736 h -0.239 v 0.245 h -0.239 v 0.246 h -0.236 v 0.733 h -0.239 v 1.96 h -0.239 v 0.98 h -0.239 v 0.491 h -0.24 v 0.734 h -0.236 v 1.717 h 0.236 v 0.49 L -21.271,1.37 v 0.245 h 0.236 v 2.696 h 0.24 v 0.978 h 0.239 v 1.227 h -0.239 V 7.74 h 0.239 v 0.981 l 0.239,-0.002 v 0.735 h 0.239 v 0.736 h 0.236 v 1.472 l -0.236,-0.002 v 0.736 h -0.239 v 1.469 h -0.239 v 0.737 h -0.239 v 0.979 h 0.239 v 0.981 h 0.239 v 0.733 h 0.239 v 0.736 h 0.236 v 1.714 h -0.475 v 0.491 h -0.239 v 0.245 h -0.239 v 0.491 h -0.24 v 0.489 h -0.236 v 0.49 h 0.236 v 1.47 h 0.479 v 0.245 h 0.239 v 0.491 h 0.239 v 0.734 h -0.239 v 1.716 h -0.239 v 0.735 h -0.479 v 0.246 l -0.236,-0.001 v 0.245 h -0.478 v 0.735 h -0.239 v 1.225 h 0.239 v 1.96 h -0.239 v 1.717 l 0.239,-0.002 v 1.47 h 0.239 v 0.248 h 0.239 v 1.469 h 0.236 v 0.979 h 0.24 v 0.491 h 0.239 v 0.49 h -0.239 v 0.49 h -0.24 v 0.245 h -0.236 v 0.246 l -0.239,-0.002 v 0.491 h -0.239 v 0.246 h -0.479 v 0.244 h -0.713 v 0.246 h -0.479 v 1.716 l 0.239,-0.001 v 1.225 h -0.239 v 0.735 h -0.239 v 0.49 h -0.236 v 0.491 h -0.239 v 0.491 h -0.24 v 0.979 h -0.238 v 1.224 h 0.238 v 0.491 h 0.24 v 0.488 h 0.239 v 0.248 l 0.236,-10e-4 v 0.245 h 0.239 v 0.981 h 0.239 v 0.245 h 0.24 v 0.49 h 0.239 v 0.489 h -0.239 v 0.492 l 0.239,-10e-4 v 0.733 h 0.236 v 0.491 h -0.236 v 0.981 h 0.236 v 3.186 h -0.236 v 0.247 l -0.239,-0.003 v 0.736 h -0.24 v 0.246 h -0.239 v 1.225 h -0.239 v 2.942 h 0.239 v 0.735 l -0.239,-0.002 V 64.1 h -0.236 v 0.245 h -0.239 v 0.49 h -0.24 v 0.734 h 0.24 v 0.491 h 0.239 v 0.49 h 0.236 v 1.227 h -0.236 v 0.489 h -0.239 v 0.245 h 0.239 v 0.245 h -0.239 v 0.736 h -0.24 v 0.735 h -0.238 l -0.017,0.49 -0.003,0.064 9.587,2.802 9.072,2.607 3.266,0.375 14.24,4.056 0.279,-1.571 2.159,-16.7 L 13.266,60.657 11.812,56.184 10.36,50.838 -2.828,37.667 -1.736,23.378 -0.891,12.816 Z" style="fill:none;stroke:#f9f9f9;stroke-width:0.25;stroke-linecap:round;stroke-linejoin:round;stroke-miterlimit:4;stroke-dasharray:none;stroke-opacity:1" id="path74"/>
    </g>
    <g id="g76" transform="matrix(2.106747, 0, 0, 2.106747, 412.155762, 166.910019)">
      <path d="m 0,0 -4.207,-9.909 -0.409,-0.199 -14.957,-7.19 -17.926,-8.84 -15.216,-7.756 -0.314,1.044 -3.597,15.887 -5.449,22.159 -2.399,10.408 -0.927,3.805 25.206,9.314 6.33,6.359 4.688,4.704 1.648,-2.693 6.321,-8.504 7.411,-9.85 z" style="fill:#878787;fill-opacity:1;fill-rule:evenodd;stroke:none" id="path78"/>
    </g>
    <g id="g80" transform="matrix(2.106747, 0, 0, 2.106747, 412.155762, 166.910019)">
      <path d="m 0,0 -4.207,-9.909 -0.409,-0.199 -14.957,-7.19 -17.926,-8.84 -15.216,-7.756 -0.314,1.044 -3.597,15.887 -5.449,22.159 -2.399,10.408 -0.927,3.805 25.206,9.314 6.33,6.359 4.688,4.704 1.648,-2.693 6.321,-8.504 7.411,-9.85 z" style="fill:none;stroke:#f9f9f9;stroke-width:0.25;stroke-linecap:round;stroke-linejoin:round;stroke-miterlimit:4;stroke-dasharray:none;stroke-opacity:1" id="path82"/>
    </g>
    <g id="g84" transform="matrix(2.106747, 0, 0, 2.106747, 348.693146, 351.494141)">
      <path d="m 0,0 -2.565,-1.499 -5.325,-3.853 -8.954,-6.213 -2.782,-2.113 -4.233,-5.967 -5.115,-7.206 -0.452,0.249 -3.993,2.361 -5.564,3.106 -3.509,2.114 -3.873,1.741 -2.136,1.07 -2.159,16.7 -0.278,1.571 0.16,0.044 4.961,23.742 9.917,14.542 6.173,8.828 2.765,3.729 h 0.239 v -0.49 l 0.24,0.002 V 52.21 h 0.239 v -0.491 h 0.236 v -2.206 h 0.239 v -0.245 h 0.239 v -0.245 h 0.239 v -0.245 h 0.239 v -0.49 h 0.24 v -0.491 h 0.235 v -0.489 h 0.24 v -0.245 h 0.239 v -0.491 h 0.239 v -0.245 h 0.239 v -0.246 h 0.236 v -0.245 l 0.239,0.002 v -0.491 h 0.239 v -0.245 h 0.239 v -0.246 h 0.24 v -0.488 h -0.24 v -0.982 h 0.24 V 42.65 h 0.239 v -0.245 l -0.239,0.002 V 42.16 h -0.718 v -0.246 l -0.239,0.002 v -0.981 h 0.239 v -0.246 h 0.239 v -0.491 h 0.239 v -1.225 h 0.24 v -1.471 h -0.24 v -0.735 h 0.24 v -0.246 h 0.475 v -0.49 h 0.239 v -0.245 h 0.239 V 35.54 l -0.239,0.002 v -0.491 h 0.239 v -1.226 h 0.478 v -0.246 h -0.238 v -0.491 h 0.238 v -0.243 h 0.237 v -0.246 h 0.238 v -0.245 h 0.24 v -0.736 h 0.239 v -0.245 h 0.479 v -0.244 h 0.235 v -0.245 h 0.24 v -0.981 h 0.239 v -0.246 h -0.239 v -0.734 h 0.239 v -0.245 h 0.714 v 0.245 h 0.718 v -0.245 h 0.475 v -0.245 h 0.239 v -0.737 h -0.239 v -0.98 h 0.239 v -0.491 h 0.239 V 25.98 h 0.239 v -0.488 h 0.239 V 24.51 h -0.478 v -0.245 h -0.239 v -0.736 l -0.239,0.002 v -0.248 h 0.239 v -1.224 h 0.239 v -0.491 h 0.239 v -0.734 h 0.239 v -0.49 h 0.475 v -0.491 h 0.24 v -0.246 l 0.239,0.002 v -0.246 h 1.431 v -0.244 h 0.24 v -0.245 h 0.239 v -0.491 h 0.236 v -0.736 h 0.239 v -0.736 h 0.239 v -0.244 h 0.239 v -0.245 h -0.239 v -0.246 h -0.478 v -0.245 h -0.475 V 15.685 H -13.84 V 14.95 h -0.239 v -0.735 h 1.193 v 0.246 h 0.717 v 0.245 h 0.239 v -0.245 h 0.715 v -0.246 h 0.478 v -0.49 h 0.239 v -0.246 h 0.236 v -0.734 h 0.239 V 12.5 h 0.239 v -0.246 h 0.479 v -0.245 h 0.475 v -0.245 h 0.478 v -0.245 h 0.478 V 11.03 h 0.236 v -0.246 h 0.479 V 10.54 h 0.478 v -0.247 h 0.236 v -0.244 l 0.239,0.001 V 9.803 h 0.24 v -0.49 h -0.24 V 9.069 h 0.24 V 8.822 h 0.478 V 8.088 L -5.249,8.09 V 7.842 h 0.236 V 7.598 l 0.239,0.001 V 7.352 h 0.479 V 7.109 h 0.239 V 6.127 H -3.82 V 5.882 h 0.239 V 4.166 h 0.239 V 3.678 l 0.717,-0.003 v 0.246 h 0.236 V 3.675 l 0.24,0.003 V 3.431 H -1.91 V 3.185 l 0.239,0.003 V 2.942 h 0.239 V 2.451 h 0.236 V 1.224 L -1.432,1.226 V 0.981 h 0.236 V 0.49 h 0.478 V 0.245 h 0.479 l 0,-0.245 z" style="fill:#878787;fill-opacity:1;fill-rule:evenodd;stroke:none" id="path86"/>
    </g>
    <g id="g88" transform="matrix(2.106747, 0, 0, 2.106747, 348.693146, 351.494141)">
      <path d="m 0,0 -2.565,-1.499 -5.325,-3.853 -8.954,-6.213 -2.782,-2.113 -4.233,-5.967 -5.115,-7.206 -0.452,0.249 -3.993,2.361 -5.564,3.106 -3.509,2.114 -3.873,1.741 -2.136,1.07 -2.159,16.7 -0.278,1.571 0.16,0.044 4.961,23.742 9.917,14.542 6.173,8.828 2.765,3.729 h 0.239 v -0.49 l 0.24,0.002 V 52.21 h 0.239 v -0.491 h 0.236 v -2.206 h 0.239 v -0.245 h 0.239 v -0.245 h 0.239 v -0.245 h 0.239 v -0.49 h 0.24 v -0.491 h 0.235 v -0.489 h 0.24 v -0.245 h 0.239 v -0.491 h 0.239 v -0.245 h 0.239 v -0.246 h 0.236 v -0.245 l 0.239,0.002 v -0.491 h 0.239 v -0.245 h 0.239 v -0.246 h 0.24 v -0.488 h -0.24 v -0.982 h 0.24 V 42.65 h 0.239 v -0.245 l -0.239,0.002 V 42.16 h -0.718 v -0.246 l -0.239,0.002 v -0.981 h 0.239 v -0.246 h 0.239 v -0.491 h 0.239 v -1.225 h 0.24 v -1.471 h -0.24 v -0.735 h 0.24 v -0.246 h 0.475 v -0.49 h 0.239 v -0.245 h 0.239 V 35.54 l -0.239,0.002 v -0.491 h 0.239 v -1.226 h 0.478 v -0.246 h -0.238 v -0.491 h 0.238 v -0.243 h 0.237 v -0.246 h 0.238 v -0.245 h 0.24 v -0.736 h 0.239 v -0.245 h 0.479 v -0.244 h 0.235 v -0.245 h 0.24 v -0.981 h 0.239 v -0.246 h -0.239 v -0.734 h 0.239 v -0.245 h 0.714 v 0.245 h 0.718 v -0.245 h 0.475 v -0.245 h 0.239 v -0.737 h -0.239 v -0.98 h 0.239 v -0.491 h 0.239 V 25.98 h 0.239 v -0.488 h 0.239 V 24.51 h -0.478 v -0.245 h -0.239 v -0.736 l -0.239,0.002 v -0.248 h 0.239 v -1.224 h 0.239 v -0.491 h 0.239 v -0.734 h 0.239 v -0.49 h 0.475 v -0.491 h 0.24 v -0.246 l 0.239,0.002 v -0.246 h 1.431 v -0.244 h 0.24 v -0.245 h 0.239 v -0.491 h 0.236 v -0.736 h 0.239 v -0.736 h 0.239 v -0.244 h 0.239 v -0.245 h -0.239 v -0.246 h -0.478 v -0.245 h -0.475 V 15.685 H -13.84 V 14.95 h -0.239 v -0.735 h 1.193 v 0.246 h 0.717 v 0.245 h 0.239 v -0.245 h 0.715 v -0.246 h 0.478 v -0.49 h 0.239 v -0.246 h 0.236 v -0.734 h 0.239 V 12.5 h 0.239 v -0.246 h 0.479 v -0.245 h 0.475 v -0.245 h 0.478 v -0.245 h 0.478 V 11.03 h 0.236 v -0.246 h 0.479 V 10.54 h 0.478 v -0.247 h 0.236 v -0.244 l 0.239,0.001 V 9.803 h 0.24 v -0.49 h -0.24 V 9.069 h 0.24 V 8.822 h 0.478 V 8.088 L -5.249,8.09 V 7.842 h 0.236 V 7.598 l 0.239,0.001 V 7.352 h 0.479 V 7.109 h 0.239 V 6.127 H -3.82 V 5.882 h 0.239 V 4.166 h 0.239 V 3.678 l 0.717,-0.003 v 0.246 h 0.236 V 3.675 l 0.24,0.003 V 3.431 H -1.91 V 3.185 l 0.239,0.003 V 2.942 h 0.239 V 2.451 h 0.236 V 1.224 L -1.432,1.226 V 0.981 h 0.236 V 0.49 h 0.478 V 0.245 h 0.479 l 0,-0.245 z" style="fill:none;stroke:#f9f9f9;stroke-width:0.25;stroke-linecap:round;stroke-linejoin:round;stroke-miterlimit:4;stroke-dasharray:none;stroke-opacity:1" id="path90"/>
    </g>
    <g id="g92" transform="matrix(2.106747, 0, 0, 2.106747, 227.808151, 59.850567)">
      <path d="m 0,0 22.538,11.028 11.88,5.707 0.371,0.189 15.215,7.756 17.926,8.84 14.957,7.189 1.065,-0.923 5.776,-7.273 11.441,-14.434 5.888,-7.722 8.296,-10.144 V 0 l -0.239,0.002 v -0.246 h -0.237 v -0.245 h -0.239 v -0.245 h -0.477 v -0.245 h -0.24 v -0.246 h -0.475 V -1.47 l -0.239,0.002 v -0.245 h -0.24 V -1.96 l -0.477,0.002 v -0.245 h -0.237 v -0.245 h -0.717 v -0.245 h -0.714 v -0.245 h -0.239 v -0.246 h -0.24 v -0.49 h -0.239 v -0.245 l -0.239,0.002 v -0.245 h -0.236 v -0.245 h -0.239 v -0.245 h -0.239 v -0.491 h -0.239 v -0.245 h -0.476 v -0.245 h -0.239 v -0.244 h -0.478 v -0.244 h -0.715 v -0.246 h -0.478 v -0.489 h -0.239 v -0.246 h -0.475 v -0.246 h -0.239 v -0.244 h -0.479 v -0.244 h -0.478 V -8.08 h -0.236 v -0.246 h -0.239 V -8.57 h -0.954 v -0.246 h -0.238 v -0.245 h -0.24 v -0.246 h -0.478 v -0.244 h -0.239 v 0.244 h -0.714 v 0.246 h -0.715 v 0.245 h -2.149 v -0.245 h -1.671 v -0.246 h -0.236 v -0.488 h -0.239 v -0.247 h -0.239 v -0.733 l -0.239,0.002 v -0.248 h -0.476 v -0.246 h -0.239 v -0.244 h -0.24 v -0.49 h -0.239 v -0.489 h -0.238 v -0.49 h -0.239 v -0.246 h -0.237 v -0.245 h -0.239 v -0.49 h -0.239 v -0.488 h -0.239 v -0.49 h -0.24 v -0.246 H 92.69 v -0.49 h -0.239 v -0.243 h -0.24 v -0.246 h -0.239 v -0.244 h -0.239 v -0.981 l -0.235,0.002 v -0.248 h -0.24 v -0.242 h -0.239 v -0.49 H 90.78 v -0.246 h -0.239 v -0.735 l -0.24,10e-4 v -0.247 h 0.24 v -0.49 h -0.24 v -0.733 h -0.236 v -0.245 h -0.238 v -0.491 h -0.24 v -0.245 h -0.714 v 0.245 h -0.24 v 0.247 l -0.239,-10e-4 v 0.245 h -0.239 v 0.245 h -0.238 v -0.245 h -0.24 v -0.245 l -0.715,10e-4 v -0.247 h -0.239 v -0.245 l -0.239,0.002 v -0.248 H 85.77 v -0.242 h -0.478 v -0.244 h -0.24 v -0.246 h -0.953 v -0.245 h -0.714 v -0.247 l -0.239,0.003 v -0.247 h -0.479 v -0.246 l -0.475,0.003 v -0.244 h -0.956 v -0.247 H 81 v -0.244 h -0.24 v -0.246 h -0.239 v -0.244 h -0.239 v -0.247 l -0.479,0.003 v -0.247 h -0.474 v -0.246 l -0.24,0.002 v -0.244 h -1.431 v -0.736 h -0.24 v -0.244 h -0.475 v -0.247 l -0.238,0.002 v -0.246 h -0.24 v -0.246 h -1.432 v 0.246 h -0.239 v 0.246 l -0.239,-0.002 v 0.247 h -0.236 v 0.244 H 74.08 v -0.244 h -0.954 v -0.247 l -0.239,0.002 v -0.246 h -1.192 v -0.246 l -0.239,0.002 v -0.49 h -0.24 v -0.245 h -2.625 v 0.245 l -0.238,-0.002 v 0.247 h -0.476 v 0.245 l -0.239,-0.002 v 0.246 h -1.431 v 0.246 l -0.479,-0.002 v 0.247 h -0.714 v 0.244 h -0.239 v 0.246 h -0.718 v 0.244 l -0.475,-0.002 v 0.736 h -0.239 v 0.247 l -0.239,-0.003 v 0.247 h -0.24 v 0.49 h -0.236 v 0.491 H 62.39 v 3.182 h -0.24 v 0.49 h -0.239 v 0.49 h -0.239 v 0.49 l -0.239,-10e-4 v 0.244 h -0.475 v 0.248 l -0.24,-10e-4 v 0.244 h -0.239 v 0.736 H 60.24 v 1.469 h -0.236 v 0.733 h -0.239 v 0.245 h -0.478 v 0.491 h -0.479 v 0.245 h -0.714 v 0.245 h -0.239 v 0.488 h -0.239 v 0.49 h -0.475 v 0.245 h -0.24 v 0.246 h -0.239 v 0.245 h -0.239 v 0.245 h -0.239 v 0.245 H 55.47 v -0.245 h -0.479 v -0.49 h -0.236 v 0.245 h -0.239 v 0.245 h -0.478 v 0.489 H 53.56 v 0.247 l -0.715,-0.003 v 0.49 h -1.193 v 0.246 h -0.238 v 0.248 l -1.193,-0.002 v 0.245 h -0.953 v 0.245 h -0.24 v -0.245 h -0.239 v 0.245 h -0.478 v 0.243 h -1.429 v 0.247 H 45.45 v -0.247 h -1.671 v -0.488 h -0.717 v 0.245 h -1.429 v -0.245 h -0.478 v -0.245 h -0.953 v 0.245 h -0.479 v -0.245 l -0.239,0.002 v -0.248 h -0.475 v -0.246 h -0.717 v -0.244 h -1.433 v 0.244 h -0.475 v 0.246 h -0.238 v 0.248 l -0.718,-0.002 v 0.245 h -0.715 v 0.735 h -0.239 v 0.244 h -0.239 v 0.244 h -0.239 v 0.246 H 31.85 v -0.246 h -1.432 v 0.246 h -0.239 v 0.245 h -0.714 v 0.246 h -0.718 v 0.244 h -0.475 v 0.246 h -0.239 v 0.488 h -0.478 v 0.244 H 27.08 v 0.246 h -0.718 v 0.246 h -2.385 v 0.245 h -0.479 v 0.244 h -0.236 v 0.246 h -0.239 v 0.244 h -0.239 v 0.244 h -0.239 v 0.245 h -0.714 v 0.245 H 19.92 v 0.246 h -0.239 v -0.246 h -0.236 v 0.246 h -0.956 v 0.245 H 18.25 v 0.245 h -0.236 v 0.245 h -0.24 v 0.488 h -0.239 v 0.247 l -0.714,-0.002 v 0.245 h -0.717 v 0.246 h -0.24 v -0.246 h -1.193 v -0.245 h -0.475 v 0.245 H 13.958 V -3.429 H 13.24 v 0.245 H 13 v 0.246 h -1.192 v -0.246 h -0.236 v 0.246 H 9.901 V -3.184 H 9.423 v 0.246 H 9.184 V -3.184 H 8.708 v 0.246 H 8.469 v 0.245 H 8.23 v 0.245 H 7.991 V -2.693 H 7.038 v 0.245 H 6.559 v 0.245 H 6.084 v 0.245 L 5.845,-1.96 v 0.247 H 5.367 v 0.245 L 4.892,-1.47 v 0.245 H 3.459 v 0.246 H 2.503 v 0.245 H 1.789 v 0.245 H 0.835 v 0.245 H 0.357 v 0.246 z" style="fill:#878787;fill-opacity:1;fill-rule:evenodd;stroke:none" id="path94"/>
    </g>
    <g id="g96" transform="matrix(2.106747, 0, 0, 2.106747, 227.808151, 59.850567)">
      <path d="m 0,0 22.538,11.028 11.88,5.707 0.371,0.189 15.215,7.756 17.926,8.84 14.957,7.189 1.065,-0.923 5.776,-7.273 11.441,-14.434 5.888,-7.722 8.296,-10.144 V 0 l -0.239,0.002 v -0.246 h -0.237 v -0.245 h -0.239 v -0.245 h -0.477 v -0.245 h -0.24 v -0.246 h -0.475 V -1.47 l -0.239,0.002 v -0.245 h -0.24 V -1.96 l -0.477,0.002 v -0.245 h -0.237 v -0.245 h -0.717 v -0.245 h -0.714 v -0.245 h -0.239 v -0.246 h -0.24 v -0.49 h -0.239 v -0.245 l -0.239,0.002 v -0.245 h -0.236 v -0.245 h -0.239 v -0.245 h -0.239 v -0.491 h -0.239 v -0.245 h -0.476 v -0.245 h -0.239 v -0.244 h -0.478 v -0.244 h -0.715 v -0.246 h -0.478 v -0.489 h -0.239 v -0.246 h -0.475 v -0.246 h -0.239 v -0.244 h -0.479 v -0.244 h -0.478 V -8.08 h -0.236 v -0.246 h -0.239 V -8.57 h -0.954 v -0.246 h -0.238 v -0.245 h -0.24 v -0.246 h -0.478 v -0.244 h -0.239 v 0.244 h -0.714 v 0.246 h -0.715 v 0.245 h -2.149 v -0.245 h -1.671 v -0.246 h -0.236 v -0.488 h -0.239 v -0.247 h -0.239 v -0.733 l -0.239,0.002 v -0.248 h -0.476 v -0.246 h -0.239 v -0.244 h -0.24 v -0.49 h -0.239 v -0.489 h -0.238 v -0.49 h -0.239 v -0.246 h -0.237 v -0.245 h -0.239 v -0.49 h -0.239 v -0.488 h -0.239 v -0.49 h -0.24 v -0.246 H 92.69 v -0.49 h -0.239 v -0.243 h -0.24 v -0.246 h -0.239 v -0.244 h -0.239 v -0.981 l -0.235,0.002 v -0.248 h -0.24 v -0.242 h -0.239 v -0.49 H 90.78 v -0.246 h -0.239 v -0.735 l -0.24,10e-4 v -0.247 h 0.24 v -0.49 h -0.24 v -0.733 h -0.236 v -0.245 h -0.238 v -0.491 h -0.24 v -0.245 h -0.714 v 0.245 h -0.24 v 0.247 l -0.239,-10e-4 v 0.245 h -0.239 v 0.245 h -0.238 v -0.245 h -0.24 v -0.245 l -0.715,10e-4 v -0.247 h -0.239 v -0.245 l -0.239,0.002 v -0.248 H 85.77 v -0.242 h -0.478 v -0.244 h -0.24 v -0.246 h -0.953 v -0.245 h -0.714 v -0.247 l -0.239,0.003 v -0.247 h -0.479 v -0.246 l -0.475,0.003 v -0.244 h -0.956 v -0.247 H 81 v -0.244 h -0.24 v -0.246 h -0.239 v -0.244 h -0.239 v -0.247 l -0.479,0.003 v -0.247 h -0.474 v -0.246 l -0.24,0.002 v -0.244 h -1.431 v -0.736 h -0.24 v -0.244 h -0.475 v -0.247 l -0.238,0.002 v -0.246 h -0.24 v -0.246 h -1.432 v 0.246 h -0.239 v 0.246 l -0.239,-0.002 v 0.247 h -0.236 v 0.244 H 74.08 v -0.244 h -0.954 v -0.247 l -0.239,0.002 v -0.246 h -1.192 v -0.246 l -0.239,0.002 v -0.49 h -0.24 v -0.245 h -2.625 v 0.245 l -0.238,-0.002 v 0.247 h -0.476 v 0.245 l -0.239,-0.002 v 0.246 h -1.431 v 0.246 l -0.479,-0.002 v 0.247 h -0.714 v 0.244 h -0.239 v 0.246 h -0.718 v 0.244 l -0.475,-0.002 v 0.736 h -0.239 v 0.247 l -0.239,-0.003 v 0.247 h -0.24 v 0.49 h -0.236 v 0.491 H 62.39 v 3.182 h -0.24 v 0.49 h -0.239 v 0.49 h -0.239 v 0.49 l -0.239,-10e-4 v 0.244 h -0.475 v 0.248 l -0.24,-10e-4 v 0.244 h -0.239 v 0.736 H 60.24 v 1.469 h -0.236 v 0.733 h -0.239 v 0.245 h -0.478 v 0.491 h -0.479 v 0.245 h -0.714 v 0.245 h -0.239 v 0.488 h -0.239 v 0.49 h -0.475 v 0.245 h -0.24 v 0.246 h -0.239 v 0.245 h -0.239 v 0.245 h -0.239 v 0.245 H 55.47 v -0.245 h -0.479 v -0.49 h -0.236 v 0.245 h -0.239 v 0.245 h -0.478 v 0.489 H 53.56 v 0.247 l -0.715,-0.003 v 0.49 h -1.193 v 0.246 h -0.238 v 0.248 l -1.193,-0.002 v 0.245 h -0.953 v 0.245 h -0.24 v -0.245 h -0.239 v 0.245 h -0.478 v 0.243 h -1.429 v 0.247 H 45.45 v -0.247 h -1.671 v -0.488 h -0.717 v 0.245 h -1.429 v -0.245 h -0.478 v -0.245 h -0.953 v 0.245 h -0.479 v -0.245 l -0.239,0.002 v -0.248 h -0.475 v -0.246 h -0.717 v -0.244 h -1.433 v 0.244 h -0.475 v 0.246 h -0.238 v 0.248 l -0.718,-0.002 v 0.245 h -0.715 v 0.735 h -0.239 v 0.244 h -0.239 v 0.244 h -0.239 v 0.246 H 31.85 v -0.246 h -1.432 v 0.246 h -0.239 v 0.245 h -0.714 v 0.246 h -0.718 v 0.244 h -0.475 v 0.246 h -0.239 v 0.488 h -0.478 v 0.244 H 27.08 v 0.246 h -0.718 v 0.246 h -2.385 v 0.245 h -0.479 v 0.244 h -0.236 v 0.246 h -0.239 v 0.244 h -0.239 v 0.244 h -0.239 v 0.245 h -0.714 v 0.245 H 19.92 v 0.246 h -0.239 v -0.246 h -0.236 v 0.246 h -0.956 v 0.245 H 18.25 v 0.245 h -0.236 v 0.245 h -0.24 v 0.488 h -0.239 v 0.247 l -0.714,-0.002 v 0.245 h -0.717 v 0.246 h -0.24 v -0.246 h -1.193 v -0.245 h -0.475 v 0.245 H 13.958 V -3.429 H 13.24 v 0.245 H 13 v 0.246 h -1.192 v -0.246 h -0.236 v 0.246 H 9.901 V -3.184 H 9.423 v 0.246 H 9.184 V -3.184 H 8.708 v 0.246 H 8.469 v 0.245 H 8.23 v 0.245 H 7.991 V -2.693 H 7.038 v 0.245 H 6.559 v 0.245 H 6.084 v 0.245 L 5.845,-1.96 v 0.247 H 5.367 v 0.245 L 4.892,-1.47 v 0.245 H 3.459 v 0.246 H 2.503 v 0.245 H 1.789 v 0.245 H 0.835 v 0.245 H 0.357 v 0.246 z" style="fill:none;stroke:#f9f9f9;stroke-width:0.25;stroke-linecap:round;stroke-linejoin:round;stroke-miterlimit:4;stroke-dasharray:none;stroke-opacity:1" id="path98"/>
    </g>
  </g>
</svg>